<svg xmlns="http://www.w3.org/2000/svg" viewBox="0 0 512 512">
  <defs>
    <linearGradient id="bg" x1="0%" y1="0%" x2="100%" y2="100%">
      <stop offset="0%" style="stop-color:#0078D4"/>
      <stop offset="100%" style="stop-color:#00A4EF"/>
    </linearGradient>
    <linearGradient id="cross" x1="0%" y1="0%" x2="100%" y2="100%">
      <stop offset="0%" style="stop-color:#ffffff"/>
      <stop offset="100%" style="stop-color:#f0f9ff"/>
    </linearGradient>
  </defs>
  
  <!-- Background rounded square -->
  <rect x="32" y="32" width="448" height="448" rx="80" ry="80" fill="url(#bg)"/>
  
  <!-- Medical cross -->
  <rect x="206" y="116" width="100" height="280" rx="20" fill="url(#cross)"/>
  <rect x="116" y="206" width="280" height="100" rx="20" fill="url(#cross)"/>
  
  <!-- Mesh pattern dots -->
  <circle cx="130" cy="130" r="12" fill="rgba(255,255,255,0.3)"/>
  <circle cx="180" cy="130" r="8" fill="rgba(255,255,255,0.2)"/>
  <circle cx="130" cy="180" r="8" fill="rgba(255,255,255,0.2)"/>
  
  <circle cx="382" cy="130" r="12" fill="rgba(255,255,255,0.3)"/>
  <circle cx="332" cy="130" r="8" fill="rgba(255,255,255,0.2)"/>
  <circle cx="382" cy="180" r="8" fill="rgba(255,255,255,0.2)"/>
  
  <circle cx="130" cy="382" r="12" fill="rgba(255,255,255,0.3)"/>
  <circle cx="180" cy="382" r="8" fill="rgba(255,255,255,0.2)"/>
  <circle cx="130" cy="332" r="8" fill="rgba(255,255,255,0.2)"/>
  
  <circle cx="382" cy="382" r="12" fill="rgba(255,255,255,0.3)"/>
  <circle cx="332" cy="382" r="8" fill="rgba(255,255,255,0.2)"/>
  <circle cx="382" cy="332" r="8" fill="rgba(255,255,255,0.2)"/>
</svg>
